<?xml version="1.0" encoding="UTF-8"?>
<svg width="300px" height="300px" viewBox="80 80 130 130" version="1.1" xmlns="http://www.w3.org/2000/svg" xmlns:xlink="http://www.w3.org/1999/xlink">
    <!-- Generator: Sketch 55.1 (78136) - https://sketchapp.com -->
    <title>300x300 - Data</title>
    <desc>Created with Sketch.</desc>
    <defs>
        <polygon id="path-1" points="0 0 87.9999 0 87.9999 101.9999 0 101.9999"></polygon>
    </defs>
    <g id="300x300---Data" stroke="none" stroke-width="1" fill="none" fill-rule="evenodd">
        <g id="Group-26" transform="translate(106.000000, 99.000000)">
            <path d="M19.0804,31.4653 C20.0634,31.4653 20.8604,30.6713 20.8604,29.6893 C20.8604,28.7093 20.0634,27.9133 19.0804,27.9133 C18.0974,27.9133 17.3004,28.7093 17.3004,29.6893 C17.3004,30.6713 18.0974,31.4653 19.0804,31.4653" id="Fill-1" fill="#005DFF"></path>
            <path d="M47.5599,27.9138 C48.5429,27.9138 49.3399,27.1198 49.3399,26.1378 C49.3399,25.1578 48.5429,24.3618 47.5599,24.3618 C46.5769,24.3618 45.7799,25.1578 45.7799,26.1378 C45.7799,27.1198 46.5769,27.9138 47.5599,27.9138" id="Fill-3" fill="#005DFF"></path>
            <path d="M29.7601,24.3621 C30.7431,24.3621 31.5401,23.5681 31.5401,22.5861 C31.5401,21.6071 30.7431,20.8101 29.7601,20.8101 C28.7771,20.8101 27.9801,21.6071 27.9801,22.5861 C27.9801,23.5681 28.7771,24.3621 29.7601,24.3621" id="Fill-5" fill="#005DFF"></path>
            <path d="M14.6307,62.5412 C13.6477,62.5412 12.8507,63.3372 12.8507,64.3172 C12.8507,65.2982 13.6477,66.0932 14.6307,66.0932 C15.6137,66.0932 16.4107,65.2982 16.4107,64.3172 C16.4107,63.3372 15.6137,62.5412 14.6307,62.5412" id="Fill-7" fill="#005DFF"></path>
            <path d="M61.7997,35.0168 C60.8167,35.0168 60.0197,35.8128 60.0197,36.7928 C60.0197,37.7738 60.8167,38.5688 61.7997,38.5688 C62.7827,38.5688 63.5797,37.7738 63.5797,36.7928 C63.5797,35.8128 62.7827,35.0168 61.7997,35.0168" id="Fill-9" fill="#005DFF"></path>
            <path d="M26.2006,56.326 C27.1836,56.326 27.9806,55.532 27.9806,54.55 C27.9806,53.57 27.1836,52.774 26.2006,52.774 C25.2176,52.774 24.4206,53.57 24.4206,54.55 C24.4206,55.532 25.2176,56.326 26.2006,56.326" id="Fill-11" fill="#005DFF"></path>
            <path d="M76.0394,63.429 C75.0564,63.429 74.2594,64.225 74.2594,65.205 C74.2594,66.186 75.0564,66.981 76.0394,66.981 C77.0224,66.981 77.8194,66.186 77.8194,65.205 C77.8194,64.225 77.0224,63.429 76.0394,63.429" id="Fill-13" fill="#005DFF"></path>
            <path d="M43.9999,84.7382 C43.0169,84.7382 42.2199,85.5342 42.2199,86.5142 C42.2199,87.4952 43.0169,88.2902 43.9999,88.2902 C44.9829,88.2902 45.7799,87.4952 45.7799,86.5142 C45.7799,85.5342 44.9829,84.7382 43.9999,84.7382" id="Fill-15" fill="#005DFF"></path>
            <path d="M65.3593,70.5322 C64.3763,70.5322 63.5793,71.3282 63.5793,72.3082 C63.5793,73.2892 64.3763,74.0842 65.3593,74.0842 C66.3423,74.0842 67.1393,73.2892 67.1393,72.3082 C67.1393,71.3282 66.3423,70.5322 65.3593,70.5322" id="Fill-17" fill="#005DFF"></path>
            <path d="M65.3593,52.7745 C64.3763,52.7745 63.5793,53.5705 63.5793,54.5505 C63.5793,55.5315 64.3763,56.3265 65.3593,56.3265 C66.3423,56.3265 67.1393,55.5315 67.1393,54.5505 C67.1393,53.5705 66.3423,52.7745 65.3593,52.7745" id="Fill-19" fill="#005DFF"></path>
            <g id="Group-23">
                <mask id="mask-2" fill="white">
                    <use xlink:href="#path-1"></use>
                </mask>
                <g id="Clip-22"></g>
                <path d="M85.4379,75.1259 L43.9999,99.2409 L2.5629,75.1259 L2.5629,26.8729 L43.9999,2.7579 L85.4379,26.8729 L85.4379,75.1259 Z M87.3639,25.0349 L44.6449,0.1739 C44.2489,-0.0581 43.7509,-0.0581 43.3549,0.1739 L0.6359,25.0349 C0.2419,25.2639 -0.0001,25.6839 -0.0001,26.1379 L-0.0001,75.8599 C-0.0001,76.3159 0.2419,76.7349 0.6359,76.9639 L43.3549,101.8249 C43.5529,101.9409 43.7779,101.9999 43.9999,101.9999 C44.2229,101.9999 44.4469,101.9409 44.6449,101.8249 L87.3639,76.9639 C87.7579,76.7349 87.9999,76.3159 87.9999,75.8599 L87.9999,26.1379 C87.9999,25.6839 87.7579,25.2639 87.3639,25.0349 L87.3639,25.0349 Z" id="Fill-21" fill="#005DFF" mask="url(#mask-2)"></path>
            </g>
            <path d="M58.2396,23.8662 C59.4966,23.8662 60.5186,24.8862 60.5186,26.1382 C60.5186,27.3922 59.4966,28.4112 58.2396,28.4112 C56.9826,28.4112 55.9606,27.3922 55.9606,26.1382 C55.9606,24.8862 56.9826,23.8662 58.2396,23.8662 L58.2396,23.8662 Z M54.6796,59.3812 C55.9366,59.3812 56.9586,60.4012 56.9586,61.6532 C56.9586,62.9072 55.9366,63.9272 54.6796,63.9272 C53.4236,63.9272 52.4006,62.9072 52.4006,61.6532 C52.4006,60.4012 53.4236,59.3812 54.6796,59.3812 L54.6796,59.3812 Z M43.9996,54.7442 C41.9316,54.7442 40.2466,53.0642 40.2466,51.0002 C40.2466,48.9352 41.9316,47.2562 43.9996,47.2562 C46.0686,47.2562 47.7526,48.9352 47.7526,51.0002 C47.7526,53.0642 46.0686,54.7442 43.9996,54.7442 L43.9996,54.7442 Z M72.4796,41.6242 C73.7366,41.6242 74.7586,42.6432 74.7586,43.8952 C74.7586,45.1492 73.7366,46.1692 72.4796,46.1692 C71.2226,46.1692 70.2006,45.1492 70.2006,43.8952 C70.2006,42.6432 71.2226,41.6242 72.4796,41.6242 L72.4796,41.6242 Z M29.7606,78.1332 C28.5036,78.1332 27.4816,77.1132 27.4816,75.8592 C27.4816,74.6072 28.5036,73.5882 29.7606,73.5882 C31.0166,73.5882 32.0396,74.6072 32.0396,75.8592 C32.0396,77.1132 31.0166,78.1332 29.7606,78.1332 L29.7606,78.1332 Z M15.5206,46.1692 C14.2636,46.1692 13.2416,45.1492 13.2416,43.8952 C13.2416,42.6432 14.2636,41.6242 15.5206,41.6242 C16.7776,41.6242 17.7996,42.6432 17.7996,43.8952 C17.7996,45.1492 16.7776,46.1692 15.5206,46.1692 L15.5206,46.1692 Z M31.0416,33.2412 C31.0416,31.9892 32.0636,30.9692 33.3206,30.9692 C34.5766,30.9692 35.5986,31.9892 35.5986,33.2412 C35.5986,34.4952 34.5766,35.5142 33.3206,35.5142 C32.0636,35.5142 31.0416,34.4952 31.0416,33.2412 L31.0416,33.2412 Z M45.9406,45.0352 C45.3256,44.8352 44.6816,44.7002 43.9996,44.7002 C43.2716,44.7002 42.5826,44.8472 41.9306,45.0752 L36.8146,36.5672 C37.6436,35.7002 38.1616,34.5332 38.1616,33.2412 C38.1616,30.5792 35.9896,28.4112 33.3206,28.4112 C30.6506,28.4112 28.4796,30.5792 28.4796,33.2412 C28.4796,35.9042 30.6506,38.0722 33.3206,38.0722 C33.7706,38.0722 34.1986,37.9912 34.6126,37.8752 L39.7316,46.3862 C39.1536,46.9202 38.6826,47.5542 38.3356,48.2692 L20.3496,43.7832 C20.2876,41.1732 18.1516,39.0662 15.5206,39.0662 C12.8506,39.0662 10.6796,41.2342 10.6796,43.8952 C10.6796,46.5592 12.8506,48.7272 15.5206,48.7272 C17.3256,48.7272 18.8836,47.7242 19.7166,46.2612 L37.7106,50.7492 C37.7066,50.8342 37.6846,50.9142 37.6846,51.0002 C37.6846,52.8752 38.5266,54.5412 39.8336,55.6982 L30.9546,71.1962 C30.5706,71.0992 30.1756,71.0302 29.7606,71.0302 C27.0906,71.0302 24.9196,73.1972 24.9196,75.8592 C24.9196,78.5232 27.0906,80.6912 29.7606,80.6912 C32.4296,80.6912 34.6016,78.5232 34.6016,75.8592 C34.6016,74.5312 34.0606,73.3272 33.1866,72.4532 L42.0596,56.9642 C42.6746,57.1652 43.3186,57.3002 43.9996,57.3002 C45.2786,57.3002 46.4656,56.9142 47.4606,56.2602 L50.4896,59.2812 C50.0876,59.9852 49.8386,60.7882 49.8386,61.6532 C49.8386,64.3172 52.0096,66.4852 54.6796,66.4852 C57.3496,66.4852 59.5206,64.3172 59.5206,61.6532 C59.5206,58.9912 57.3496,56.8242 54.6796,56.8242 C53.8106,56.8242 53.0066,57.0722 52.3006,57.4742 L49.2726,54.4512 C49.9276,53.4592 50.3146,52.2752 50.3146,51.0002 C50.3146,50.9142 50.2926,50.8342 50.2896,50.7492 L68.2836,46.2612 C69.1166,47.7242 70.6746,48.7272 72.4796,48.7272 C75.1496,48.7272 77.3206,46.5592 77.3206,43.8952 C77.3206,41.2342 75.1496,39.0662 72.4796,39.0662 C69.8476,39.0662 67.7116,41.1732 67.6496,43.7832 L49.6646,48.2692 C49.2976,47.5152 48.7886,46.8522 48.1666,46.3022 L57.0446,30.8032 C57.4286,30.9002 57.8246,30.9692 58.2396,30.9692 C60.9096,30.9692 63.0806,28.8012 63.0806,26.1382 C63.0806,23.4762 60.9096,21.3082 58.2396,21.3082 C55.5696,21.3082 53.3986,23.4762 53.3986,26.1382 C53.3986,27.4662 53.9396,28.6712 54.8126,29.5452 L45.9406,45.0352 Z" id="Fill-24" fill="#005DFF"></path>
        </g>
    </g>
</svg>